<svg width="26" height="26" viewBox="0 0 26 26" fill="none" xmlns="http://www.w3.org/2000/svg">
<path d="M17.9688 1.9375C19.1406 0.765625 21.0625 0.765625 22.2344 1.9375L24.0625 3.76562C25.2344 4.9375 25.2344 6.85938 24.0625 8.03125L21.8125 10.2812L15.7188 4.1875L17.9688 1.9375ZM20.7344 11.3594L9.8125 22.2812C9.34375 22.75 8.73438 23.125 8.07812 23.3125L2.40625 24.9531C2.03125 25.0938 1.60938 25 1.32812 24.6719C1 24.3906 0.90625 23.9688 1 23.5938L2.6875 17.9219C2.875 17.2656 3.25 16.6562 3.71875 16.1875L14.6406 5.26562L20.7344 11.3594Z" fill="#577C8E"/>
</svg>
