<svg width="25" height="24" viewBox="0 0 25 24" fill="none" xmlns="http://www.w3.org/2000/svg">
<path d="M4.99072 8.57812C4.38135 8.01562 4.38135 7.03125 4.99072 6.46875L10.9907 0.46875C11.272 0.1875 11.647 0 12.0688 0C12.4438 0 12.8188 0.1875 13.1001 0.46875L19.1001 6.46875C19.7095 7.03125 19.7095 8.01562 19.1001 8.57812C18.5376 9.1875 17.5532 9.1875 16.9907 8.57812L13.5688 5.15625V16.5C13.5688 17.3438 12.8657 18 12.0688 18C11.2251 18 10.5688 17.3438 10.5688 16.5V5.15625L7.1001 8.57812C6.5376 9.1875 5.55322 9.1875 4.99072 8.57812ZM22.5688 16.5C23.3657 16.5 24.0688 17.2031 24.0688 18V22.5C24.0688 23.3438 23.3657 24 22.5688 24H1.56885C0.725098 24 0.0688477 23.3438 0.0688477 22.5V18C0.0688477 17.2031 0.725098 16.5 1.56885 16.5H9.06885C9.06885 18.1875 10.3813 19.5 12.0688 19.5C13.7095 19.5 15.0688 18.1875 15.0688 16.5H22.5688ZM20.3188 21.375C20.9282 21.375 21.4438 20.9062 21.4438 20.25C21.4438 19.6406 20.9282 19.125 20.3188 19.125C19.6626 19.125 19.1938 19.6406 19.1938 20.25C19.1938 20.9062 19.6626 21.375 20.3188 21.375Z" fill="#2F4157"/>
</svg>
